<?xml version="1.0" encoding="UTF-8" standalone="no"?>
<svg
   version="1.1"
   width="385px"
   height="385px"
   style="shape-rendering:geometricPrecision; text-rendering:geometricPrecision; image-rendering:optimizeQuality; fill-rule:evenodd; clip-rule:evenodd"
   id="svg22"
   sodipodi:docname="logo.svg"
   inkscape:version="1.3.2 (091e20ef0f, 2023-11-25)"
   xmlns:inkscape="http://www.inkscape.org/namespaces/inkscape"
   xmlns:sodipodi="http://sodipodi.sourceforge.net/DTD/sodipodi-0.dtd"
   xmlns="http://www.w3.org/2000/svg"
   xmlns:svg="http://www.w3.org/2000/svg">
  <defs
     id="defs22" />
  <sodipodi:namedview
     id="namedview22"
     pagecolor="#ffffff"
     bordercolor="#000000"
     borderopacity="0.25"
     inkscape:showpageshadow="2"
     inkscape:pageopacity="0.0"
     inkscape:pagecheckerboard="0"
     inkscape:deskcolor="#d1d1d1"
     inkscape:zoom="0.76883115"
     inkscape:cx="13.657095"
     inkscape:cy="102.10304"
     inkscape:window-width="1342"
     inkscape:window-height="717"
     inkscape:window-x="0"
     inkscape:window-y="0"
     inkscape:window-maximized="1"
     inkscape:current-layer="svg22" />
  <g
     id="g1">
    <path
       style="opacity:1"
       fill="#000000"
       d="M 362.5,384.5 C 362.167,384.5 361.833,384.5 361.5,384.5C 356.548,377.709 351.382,371.042 346,364.5C 341.167,370.667 336.333,376.833 331.5,383C 329.097,383.63 327.263,382.797 326,380.5C 325.53,379.423 325.697,378.423 326.5,377.5C 330.983,372.176 335.317,366.676 339.5,361C 328.436,355.719 317.269,350.553 306,345.5C 273.482,369.728 236.982,382.728 196.5,384.5C 193.5,384.5 190.5,384.5 187.5,384.5C 147.018,382.728 110.518,369.728 78,345.5C 66.7309,350.553 55.5642,355.719 44.5,361C 49.04,367.239 53.7066,373.406 58.5,379.5C 57.1431,381.186 55.8098,382.852 54.5,384.5C 54.1667,384.5 53.8333,384.5 53.5,384.5C 48.5485,377.709 43.3818,371.042 38,364.5C 32.6182,371.042 27.4515,377.709 22.5,384.5C 22.1667,384.5 21.8333,384.5 21.5,384.5C 20.2842,382.549 18.6175,381.049 16.5,380C 23.0741,372.182 29.4075,364.182 35.5,356C 47.8115,351.294 59.8115,346.128 71.5,340.5C 17.913,292.253 -3.9203,232.253 6,160.5C 17.5172,109.522 45.3505,68.6884 89.5,38C 157.833,-2.66667 226.167,-2.66667 294.5,38C 349.483,75.9411 378.15,128.608 380.5,196C 378.895,254.364 356.228,302.531 312.5,340.5C 324.188,346.128 336.188,351.294 348.5,356C 354.593,364.182 360.926,372.182 367.5,380C 365.382,381.049 363.716,382.549 362.5,384.5 Z"
       id="path1" />
  </g>
  <g
     id="g2">
    <path
       style="opacity:1"
       fill="#fefefe"
       d="M 135.5,91.5 C 157.096,92.1405 175.763,99.8071 191.5,114.5C 217.251,91.9855 246.251,86.4855 278.5,98C 304.985,109.803 320.818,129.969 326,158.5C 326.667,212.167 326.667,265.833 326,319.5C 279.413,365.451 223.58,383.618 158.5,374C 118.901,365.789 85.0678,347.289 57,318.5C 56.3333,266.5 56.3333,214.5 57,162.5C 61.4704,131.041 78.3037,109.208 107.5,97C 116.764,94.0467 126.097,92.2134 135.5,91.5 Z"
       id="path2" />
  </g>
  <g
     id="g3" />
  <g
     id="g4" />
  <g
     id="g5">
    <path
       style="opacity:1"
       fill="#ffab03"
       d="M 190.5,185.5 C 191.922,185.709 193.255,186.209 194.5,187C 211.709,203.046 229.043,218.879 246.5,234.5C 228.531,263.633 210.364,292.633 192,321.5C 173.5,292.5 155,263.5 136.5,234.5C 154.573,218.15 172.573,201.817 190.5,185.5 Z"
       id="path5" />
  </g>
  <g
     id="g6">
    <path
       style="opacity:0.004"
       fill="#babbba"
       d="M 332.5,344.5 C 333.833,345.167 333.833,345.167 332.5,344.5 Z"
       id="path6" />
  </g>
  <g
     id="g7">
    <path
       style="opacity:0.008"
       fill="#babbba"
       d="M 337.5,346.5 C 338.833,347.167 338.833,347.167 337.5,346.5 Z"
       id="path7" />
  </g>
  <g
     id="g11">
    <path
       style="opacity:0.063"
       fill="#cbcccb"
       d="M 35.5,350.5 C 36.8333,351.167 36.8333,351.167 35.5,350.5 Z"
       id="path11" />
  </g>
  <g
     id="g12">
    <path
       style="opacity:0.004"
       fill="#d7d8d7"
       d="M 334.5,361.5 C 335.833,362.167 335.833,362.167 334.5,361.5 Z"
       id="path12" />
  </g>
  <g
     id="g13">
    <path
       style="opacity:0.004"
       fill="#555655"
       d="M 333.5,363.5 C 334.833,364.167 334.833,364.167 333.5,363.5 Z"
       id="path13" />
  </g>
  <g
     id="g14">
    <path
       style="opacity:0.039"
       fill="#8d8e8d"
       d="M 333.5,364.5 C 332.833,365.167 332.833,365.167 333.5,364.5 Z"
       id="path14" />
  </g>
  <g
     id="g15">
    <path
       style="opacity:0.067"
       fill="#c5c6c5"
       d="M 332.5,365.5 C 331.833,366.167 331.833,366.167 332.5,365.5 Z"
       id="path15" />
  </g>
  <g
     id="g19">
    <path
       style="opacity:0.031"
       fill="#c6c7c6"
       d="M 324.5,374.5 C 325.833,375.167 325.833,375.167 324.5,374.5 Z"
       id="path19" />
  </g>
  <g
     id="g20">
    <path
       style="opacity:0.004"
       fill="#7b7c7b"
       d="M 367.5,375.5 C 366.833,374.167 366.833,374.167 367.5,375.5 Z"
       id="path20" />
  </g>
  <g
     id="g21">
    <path
       style="opacity:0.098"
       fill="#cdcecd"
       d="M 367.5,375.5 C 368.833,376.167 368.833,376.167 367.5,375.5 Z"
       id="path21" />
  </g>
  <path
     id="path8"
     sodipodi:type="arc"
     sodipodi:cx="256.8136"
     sodipodi:cy="161.42224"
     sodipodi:rx="14.833292"
     sodipodi:ry="15.41885"
     sodipodi:start="0"
     sodipodi:end="6.2692594"
     sodipodi:open="true"
     sodipodi:arc-type="arc"
     d="m 271.64689,161.42224 a 14.833292,15.41885 0 0 1 -14.78165,15.41876 14.833292,15.41885 0 0 1 -14.88457,-15.3114 14.833292,15.41885 0 0 1 14.67801,-15.52537 14.833292,15.41885 0 0 1 14.98677,15.2033" />
  <path
     style="clip-rule:evenodd;fill-rule:evenodd;image-rendering:optimizeQuality;shape-rendering:geometricPrecision;text-rendering:geometricPrecision"
     id="path8-6"
     sodipodi:type="arc"
     sodipodi:cx="125.25657"
     sodipodi:cy="161.56935"
     sodipodi:rx="14.833292"
     sodipodi:ry="15.41885"
     sodipodi:start="0"
     sodipodi:end="6.2692594"
     sodipodi:open="true"
     sodipodi:arc-type="arc"
     d="m 140.08986,161.56935 a 14.833292,15.41885 0 0 1 -14.78165,15.41876 14.833292,15.41885 0 0 1 -14.88457,-15.3114 14.833292,15.41885 0 0 1 14.67801,-15.52537 14.833292,15.41885 0 0 1 14.98677,15.2033" />
</svg>
